<svg data-v-423bf9ae="" xmlns="http://www.w3.org/2000/svg" viewBox="0 0 330 90" class="iconLeft"><!----><!----><!----><g data-v-423bf9ae="" id="89befb17-bcf0-4399-b18c-5c3044d4e23e" fill="white" transform="matrix(6.335797075835233,0,0,6.335797075835233,118.22295593346851,-19.5300942853561)"><path d="M3.35 10.15L4.09 10.15L4.09 10.15Q4.68 10.15 4.99 9.88L4.99 9.88L4.99 9.88Q5.31 9.60 5.31 9.04L5.31 9.04L5.31 9.04Q5.31 8.51 4.98 8.23L4.98 8.23L4.98 8.23Q4.65 7.94 4.02 7.94L4.02 7.94L4.02 7.94Q3.79 7.94 3.65 7.95L3.65 7.95L3.65 7.95Q3.50 7.95 3.35 7.98L3.35 7.98L3.35 10.15ZM3.36 12.07L3.36 14.64L3.36 14.64Q3.21 14.69 2.88 14.73L2.88 14.73L2.88 14.73Q2.55 14.77 2.23 14.77L2.23 14.77L2.23 14.77Q1.90 14.77 1.66 14.72L1.66 14.72L1.66 14.72Q1.41 14.67 1.25 14.55L1.25 14.55L1.25 14.55Q1.08 14.42 0.99 14.20L0.99 14.20L0.99 14.20Q0.91 13.97 0.91 13.61L0.91 13.61L0.91 7.01L0.91 7.01Q0.91 6.72 1.07 6.56L1.07 6.56L1.07 6.56Q1.23 6.40 1.51 6.30L1.51 6.30L1.51 6.30Q1.99 6.13 2.60 6.06L2.60 6.06L2.60 6.06Q3.21 5.98 3.82 5.98L3.82 5.98L3.82 5.98Q5.75 5.98 6.78 6.80L6.78 6.80L6.78 6.80Q7.80 7.63 7.80 9.04L7.80 9.04L7.80 9.04Q7.80 9.73 7.58 10.28L7.58 10.28L7.58 10.28Q7.36 10.84 6.94 11.24L6.94 11.24L6.94 11.24Q6.51 11.63 5.86 11.85L5.86 11.85L5.86 11.85Q5.21 12.07 4.35 12.07L4.35 12.07L3.36 12.07ZM15.90 11.30L15.90 11.30L15.90 11.30Q15.90 12.17 15.64 12.85L15.64 12.85L15.64 12.85Q15.37 13.52 14.89 13.99L14.89 13.99L14.89 13.99Q14.41 14.45 13.73 14.69L13.73 14.69L13.73 14.69Q13.06 14.92 12.24 14.92L12.24 14.92L12.24 14.92Q11.41 14.92 10.74 14.67L10.74 14.67L10.74 14.67Q10.07 14.42 9.58 13.95L9.58 13.95L9.58 13.95Q9.10 13.48 8.83 12.81L8.83 12.81L8.83 12.81Q8.57 12.14 8.57 11.30L8.57 11.30L8.57 11.30Q8.57 10.47 8.83 9.80L8.83 9.80L8.83 9.80Q9.10 9.13 9.58 8.66L9.58 8.66L9.58 8.66Q10.07 8.19 10.74 7.94L10.74 7.94L10.74 7.94Q11.41 7.69 12.24 7.69L12.24 7.69L12.24 7.69Q13.06 7.69 13.73 7.95L13.73 7.95L13.73 7.95Q14.41 8.20 14.89 8.67L14.89 8.67L14.89 8.67Q15.37 9.14 15.64 9.81L15.64 9.81L15.64 9.81Q15.90 10.49 15.90 11.30ZM11.00 11.30L11.00 11.30L11.00 11.30Q11.00 12.15 11.33 12.61L11.33 12.61L11.33 12.61Q11.66 13.06 12.25 13.06L12.25 13.06L12.25 13.06Q12.84 13.06 13.15 12.60L13.15 12.60L13.15 12.60Q13.47 12.14 13.47 11.30L13.47 11.30L13.47 11.30Q13.47 10.46 13.15 10.00L13.15 10.00L13.15 10.00Q12.82 9.55 12.24 9.55L12.24 9.55L12.24 9.55Q11.65 9.55 11.33 10.00L11.33 10.00L11.33 10.00Q11.00 10.46 11.00 11.30ZM19.49 6.57L19.49 14.69L19.49 14.69Q19.33 14.71 19.03 14.76L19.03 14.76L19.03 14.76Q18.73 14.81 18.42 14.81L18.42 14.81L18.42 14.81Q18.12 14.81 17.87 14.77L17.87 14.77L17.87 14.77Q17.63 14.73 17.46 14.60L17.46 14.60L17.46 14.60Q17.29 14.48 17.20 14.26L17.20 14.26L17.20 14.26Q17.11 14.04 17.11 13.69L17.11 13.69L17.11 5.57L17.11 5.57Q17.26 5.54 17.56 5.50L17.56 5.50L17.56 5.50Q17.86 5.45 18.17 5.45L18.17 5.45L18.17 5.45Q18.48 5.45 18.73 5.49L18.73 5.49L18.73 5.49Q18.97 5.53 19.14 5.66L19.14 5.66L19.14 5.66Q19.31 5.78 19.40 6.00L19.40 6.00L19.40 6.00Q19.49 6.22 19.49 6.57L19.49 6.57ZM23.90 13.19L23.90 13.19L23.90 13.19Q24.14 13.19 24.42 13.14L24.42 13.14L24.42 13.14Q24.71 13.09 24.85 13.01L24.85 13.01L24.85 11.89L23.84 11.97L23.84 11.97Q23.45 12.00 23.20 12.14L23.20 12.14L23.20 12.14Q22.95 12.28 22.95 12.56L22.95 12.56L22.95 12.56Q22.95 12.84 23.16 13.01L23.16 13.01L23.16 13.01Q23.38 13.19 23.90 13.19ZM23.79 7.69L23.79 7.69L23.79 7.69Q24.54 7.69 25.17 7.84L25.17 7.84L25.17 7.84Q25.79 7.99 26.23 8.31L26.23 8.31L26.23 8.31Q26.67 8.62 26.91 9.11L26.91 9.11L26.91 9.11Q27.15 9.59 27.15 10.25L27.15 10.25L27.15 13.38L27.15 13.38Q27.15 13.75 26.94 13.98L26.94 13.98L26.94 13.98Q26.74 14.21 26.46 14.38L26.46 14.38L26.46 14.38Q25.55 14.92 23.90 14.92L23.90 14.92L23.90 14.92Q23.16 14.92 22.56 14.78L22.56 14.78L22.56 14.78Q21.97 14.64 21.54 14.36L21.54 14.36L21.54 14.36Q21.11 14.08 20.88 13.65L20.88 13.65L20.88 13.65Q20.65 13.22 20.65 12.64L20.65 12.64L20.65 12.64Q20.65 11.68 21.22 11.16L21.22 11.16L21.22 11.16Q21.80 10.64 23.00 10.51L23.00 10.51L24.84 10.32L24.84 10.22L24.84 10.22Q24.84 9.81 24.48 9.64L24.48 9.64L24.48 9.64Q24.12 9.46 23.45 9.46L23.45 9.46L23.45 9.46Q22.92 9.46 22.41 9.58L22.41 9.58L22.41 9.58Q21.91 9.69 21.50 9.86L21.50 9.86L21.50 9.86Q21.32 9.73 21.20 9.47L21.20 9.47L21.20 9.47Q21.07 9.21 21.07 8.93L21.07 8.93L21.07 8.93Q21.07 8.57 21.25 8.35L21.25 8.35L21.25 8.35Q21.42 8.13 21.78 7.98L21.78 7.98L21.78 7.98Q22.19 7.83 22.74 7.76L22.74 7.76L22.74 7.76Q23.30 7.69 23.79 7.69ZM30.98 9.91L30.98 14.69L30.98 14.69Q30.84 14.73 30.54 14.77L30.54 14.77L30.54 14.77Q30.24 14.81 29.92 14.81L29.92 14.81L29.92 14.81Q29.61 14.81 29.37 14.77L29.37 14.77L29.37 14.77Q29.12 14.73 28.95 14.60L28.95 14.60L28.95 14.60Q28.78 14.48 28.69 14.26L28.69 14.26L28.69 14.26Q28.60 14.04 28.60 13.69L28.60 13.69L28.60 9.49L28.60 9.49Q28.60 9.17 28.72 8.94L28.72 8.94L28.72 8.94Q28.84 8.71 29.06 8.53L29.06 8.53L29.06 8.53Q29.29 8.34 29.62 8.20L29.62 8.20L29.62 8.20Q29.95 8.05 30.32 7.94L30.32 7.94L30.32 7.94Q30.70 7.83 31.11 7.76L31.11 7.76L31.11 7.76Q31.51 7.70 31.92 7.70L31.92 7.70L31.92 7.70Q32.59 7.70 32.98 7.96L32.98 7.96L32.98 7.96Q33.38 8.22 33.38 8.81L33.38 8.81L33.38 8.81Q33.38 9.00 33.32 9.19L33.32 9.19L33.32 9.19Q33.26 9.38 33.18 9.53L33.18 9.53L33.18 9.53Q32.89 9.53 32.58 9.56L32.58 9.56L32.58 9.56Q32.27 9.59 31.98 9.65L31.98 9.65L31.98 9.65Q31.68 9.70 31.42 9.77L31.42 9.77L31.42 9.77Q31.16 9.83 30.98 9.91L30.98 9.91Z"></path></g><!----><g data-v-423bf9ae="" id="4d4ed9b6-31d1-4ec5-9b2c-1b11484c3cb0" transform="matrix(2.079770663309832,0,0,2.079770663309832,0.005733417254205619,-6.631264531094807)" stroke="none" fill="white"><path clip-rule="evenodd" d="M6.796 8.886a1.108 1.108 0 1 1 .003 2.215 1.108 1.108 0 0 1-.003-2.215m25.818 28.513l-14.547 1.35-7.307-4.404 2.484-2.626a8.194 8.194 0 0 1 2.064-2.982l-.112-1.266-1.764.041-6.228 6.586v6.509l10.053 6.03L32.6 44.851l12.423 1.35L50 40.921l-.001-7.953-4.828-3.269-.241 1.959.033 1.22 1.653 1.119-4.144 4.413-9.858-1.011zm.419-10.347l-6.972.159c-.165.925-.266 1.82-.295 2.759l7.027-.16c.209-.275.424-.533.663-.784l-.423-1.974zm3.682-23.689c-1.576.141-3.142.314-4.713.495-1.329.153-2.66.308-4.233.448l-7.434-.93-4.495 1.73-5.485-.05-2.469-.583-1.373 1.933-3.207 2.753-.192 1.596L0 14.072l2.517 3.299c3.542.409 7.081.845 10.619 1.285 3.161 2.453 3.213 7.364 3.58 11.034-1.909 1.318-2.333 2.92-2.929 4.97H24.18c-.14-1.541-.3-3.071-.253-4.623.031-1.035.156-2.095.402-3.365l.909-2.728 8.878.71.526 2.456.58 2.705c-1.749 1.453-2.064 2.817-2.632 4.844h10.86l-.078-2.826c.412-3.478.801-6.316 1.91-9.709.929-2.847 1.55-5.765 1.558-8.77l-2.41-6.242-7.715-3.749z"></path></g><!----></svg>